<?xml version="1.0" encoding="UTF-8"?>
<svg xmlns="http://www.w3.org/2000/svg" xmlns:xlink="http://www.w3.org/1999/xlink" width="2000" height="2000" viewBox="0 0 2000 2000">
<defs>
<clipPath id="clip-0">
<path clip-rule="nonzero" d="M 1394 1376 L 1623 1376 L 1623 1656 L 1394 1656 Z M 1394 1376 "/>
</clipPath>
<clipPath id="clip-1">
<path clip-rule="evenodd" d="M 1353.808594 459.78125 C 1368.679688 488.359375 1371.179688 531.949219 1387.351562 565.019531 C 1405.839844 602.828125 1441.851562 649.808594 1464.738281 686.601562 C 1485.140625 719.398438 1510.660156 749.78125 1524.679688 785.769531 C 1546.578125 842.019531 1583.289062 942.160156 1596.160156 1024.089844 C 1612.019531 1125.0625 1629.371094 1299.808594 1619.839844 1391.59375 C 1612.941406 1457.992188 1565.238281 1533.125 1538.929688 1574.796875 C 1520.800781 1603.523438 1491.761719 1625.269531 1461.980469 1641.632812 C 1425.761719 1661.535156 1366.628906 1672.53125 1321.621094 1694.214844 C 1251.519531 1727.984375 1041.410156 1844.242188 1041.410156 1844.242188 C 1041.410156 1844.242188 931.460938 1773.414062 873.175781 1744.023438 C 810.953125 1712.644531 726.929688 1676.800781 668.070312 1655.976562 C 620.128906 1639.011719 520.03125 1619.070312 520.03125 1619.070312 C 520.03125 1619.070312 594.007812 1528.652344 615.683594 1475.339844 C 642.722656 1408.851562 679.46875 1308.007812 682.253906 1220.136719 C 685.128906 1129.460938 662.597656 1010.792969 632.925781 931.289062 C 606.351562 860.101562 540.347656 801.261719 504.207031 743.140625 C 471.96875 691.289062 437.90625 633.96875 416.089844 582.570312 C 396.046875 535.339844 380.574219 466.371094 373.316406 434.710938 C 370.183594 421.039062 372.558594 392.621094 372.558594 392.621094 L 819.667969 384.539062 C 948.472656 382.21875 1190.921875 374.890625 1270.660156 376.398438 C 1281.460938 376.601562 1290.5 385.929688 1298.121094 393.570312 C 1311.980469 407.46875 1340.5 434.199219 1353.808594 459.78125 Z M 1353.808594 459.78125 "/>
</clipPath>
</defs>
<path fill-rule="evenodd" fill="rgb(100%, 85.546875%, 64.256287%)" fill-opacity="1" d="M 1353.808594 459.78125 C 1368.679688 488.359375 1371.179688 531.949219 1387.351562 565.019531 C 1405.839844 602.828125 1441.851562 649.808594 1464.738281 686.601562 C 1485.140625 719.398438 1510.660156 749.78125 1524.679688 785.769531 C 1546.578125 842.019531 1583.289062 942.160156 1596.160156 1024.089844 C 1612.019531 1125.0625 1629.371094 1299.808594 1619.839844 1391.59375 C 1612.941406 1457.992188 1565.238281 1533.125 1538.929688 1574.796875 C 1520.800781 1603.523438 1491.761719 1625.269531 1461.980469 1641.632812 C 1425.761719 1661.535156 1366.628906 1672.53125 1321.621094 1694.214844 C 1251.519531 1727.984375 1041.410156 1844.242188 1041.410156 1844.242188 C 1041.410156 1844.242188 931.460938 1773.414062 873.175781 1744.023438 C 810.953125 1712.644531 726.929688 1676.800781 668.070312 1655.976562 C 620.128906 1639.011719 520.03125 1619.070312 520.03125 1619.070312 C 520.03125 1619.070312 594.007812 1528.652344 615.683594 1475.339844 C 642.722656 1408.851562 679.46875 1308.007812 682.253906 1220.136719 C 685.128906 1129.460938 662.597656 1010.792969 632.925781 931.289062 C 606.351562 860.101562 540.347656 801.261719 504.207031 743.140625 C 471.96875 691.289062 437.90625 633.96875 416.089844 582.570312 C 396.046875 535.339844 380.574219 466.371094 373.316406 434.710938 C 370.183594 421.039062 372.558594 392.621094 372.558594 392.621094 L 819.667969 384.539062 C 948.472656 382.21875 1190.921875 374.890625 1270.660156 376.398438 C 1281.460938 376.601562 1290.5 385.929688 1298.121094 393.570312 C 1311.980469 407.46875 1340.5 434.199219 1353.808594 459.78125 "/>
<g clip-path="url(#clip-0)">
<g clip-path="url(#clip-1)">
<path fill-rule="evenodd" fill="rgb(99.609375%, 80.859375%, 53.318787%)" fill-opacity="1" d="M 1619.558594 1376.429688 C 1619.558594 1376.429688 1567.03125 1452.847656 1531.921875 1482.277344 C 1480.28125 1525.566406 1394.660156 1536.085938 1394.660156 1536.085938 C 1394.660156 1536.085938 1461.71875 1593.597656 1482.53125 1649.988281 C 1492.871094 1678.007812 1548.621094 1594.65625 1572.328125 1559.34375 C 1597.578125 1521.726562 1626.179688 1454.773438 1634.050781 1424.289062 C 1638.21875 1408.148438 1619.558594 1376.429688 1619.558594 1376.429688 "/>
</g>
</g>
<path fill-rule="evenodd" fill="rgb(100%, 85.546875%, 64.256287%)" fill-opacity="1" d="M 372.558594 392.621094 C 372.558594 392.621094 385.800781 314.921875 401.269531 285.878906 C 422.507812 246.011719 437.492188 229.851562 455.90625 211.019531 C 471.667969 194.910156 491.050781 179.980469 511.761719 172.898438 C 532.472656 165.808594 555.109375 160.601562 580.171875 168.511719 C 608.714844 177.519531 672.488281 254.179688 672.488281 254.179688 L 674.894531 387.160156 L 634.054688 435.171875 L 592.734375 456.449219 C 592.734375 456.449219 531.800781 457.550781 509.347656 457.960938 C 486.898438 458.359375 399.660156 424.011719 399.660156 424.011719 L 372.558594 392.621094 "/>
<path fill-rule="evenodd" fill="rgb(93.164062%, 73.046875%, 43.992615%)" fill-opacity="1" d="M 579.0625 454.5 C 565.453125 454.75 551.558594 453.480469 538.5625 450.390625 C 525.570312 447.308594 510.617188 444.300781 501.089844 436.011719 C 491.09375 427.308594 481.625 412.089844 478.59375 398.21875 C 474.628906 380.089844 474.703125 344.78125 477.308594 327.238281 C 479.128906 314.988281 484.605469 302.359375 494.234375 292.988281 C 503.902344 283.578125 519.488281 273.929688 535.320312 270.78125 C 562.5625 265.371094 631.304688 262.328125 657.683594 260.511719 C 669.625 259.679688 693.601562 259.859375 693.601562 259.859375 C 693.601562 259.859375 696.808594 259.800781 709.636719 259.570312 C 722.46875 259.328125 744.664062 244.949219 753.128906 251.789062 C 761.59375 258.628906 756.460938 294.21875 762.488281 308.101562 C 768.511719 321.980469 764.195312 402.75 764.195312 402.75 L 712.757812 432.191406 C 712.757812 432.191406 669.8125 444.71875 647.605469 448.421875 C 625.320312 452.140625 597.234375 454.179688 579.0625 454.5 "/>
<path fill-rule="evenodd" fill="rgb(99.609375%, 80.859375%, 53.318787%)" fill-opacity="1" d="M 573.902344 454.441406 C 605.84375 448.550781 661.957031 386.269531 661.09375 338.511719 C 660.230469 290.75 643.59375 180.089844 568.722656 167.871094 C 502.273438 157.011719 1188.230469 156.539062 1326.070312 179.050781 C 1372.828125 186.691406 1393.238281 259.359375 1395.761719 302.941406 C 1398.289062 346.53125 1389.75 431.628906 1341.21875 440.570312 C 1204.238281 465.820312 573.902344 454.441406 573.902344 454.441406 "/>
</svg>
